<svg class="icon" viewBox="0 0 1024 1024" version="1.1" xmlns="http://www.w3.org/2000/svg" width="200" height="200"><path d="M453.859556 778.808889c187.904 0 340.195556-152.860444 340.195555-341.333333 0-188.529778-152.291556-341.333333-340.195555-341.333334-187.904 0-340.252444 152.803556-340.252445 341.333334 0 188.472889 152.348444 341.333333 340.195556 341.333333z m0 56.888889C234.609778 835.697778 56.888889 657.294222 56.888889 437.475556c0-219.989333 177.720889-398.222222 396.970667-398.222223 219.249778 0 396.970667 178.232889 396.970666 398.222223 0 219.875556-177.720889 398.222222-396.970666 398.222222z m264.362666-140.856889l240.583111 241.379555a28.501333 28.501333 0 0 1 0 40.220445 28.273778 28.273778 0 0 1-40.106666 0l-240.64-241.322667a28.501333 28.501333 0 0 1 0-40.277333 28.273778 28.273778 0 0 1 40.163555 0z" fill="#565E66"></path></svg>