<svg t="1767692114182" class="icon" viewBox="0 0 1024 1024" version="1.1" xmlns="http://www.w3.org/2000/svg" p-id="8801" width="200" height="200">
    <!-- 移除了原有的白色矩形边框路径，仅保留核心图标路径 -->
    <path d="M454.4 224c12.8 0 12.8 0 19.2 19.2 0 25.6 6.4 51.2 19.2 76.8 6.4 32 19.2 57.6 25.6 89.6 19.2 57.6 64 96 121.6 115.2 44.8 19.2 96 25.6 140.8 38.4h12.8c6.4 0 12.8 6.4 12.8 12.8s0 12.8-12.8 19.2c-19.2 0-38.4 6.4-51.2 12.8-38.4 6.4-76.8 19.2-108.8 32-57.6 25.6-96 64-115.2 121.6-19.2 44.8-25.6 96-38.4 140.8v12.8c0 12.8-6.4 12.8-19.2 12.8-6.4 0-12.8 0-12.8-12.8 0-19.2-6.4-44.8-12.8-64-6.4-32-19.2-64-32-96-19.2-57.6-64-96-121.6-115.2-44.8-19.2-96-25.6-140.8-38.4h-19.2c-12.8 0-19.2-6.4-19.2-19.2 0-6.4 0-12.8 12.8-19.2 32-6.4 70.4-12.8 102.4-25.6 19.2 0 38.4-12.8 57.6-19.2 57.6-19.2 102.4-64 121.6-128 19.2-44.8 25.6-96 38.4-147.2v-12.8c0-6.4 6.4-12.8 12.8-12.8zM921.6 236.8c0 6.4 0 12.8-12.8 19.2-19.2 0-32 6.4-51.2 12.8-25.6 6.4-44.8 25.6-51.2 51.2 0 12.8-6.4 25.6-12.8 38.4v6.4c0 6.4-6.4 12.8-19.2 12.8-6.4 0-12.8 0-19.2-12.8 0-12.8-6.4-32-12.8-44.8-6.4-32-25.6-51.2-57.6-57.6-12.8 0-32-6.4-44.8-12.8-12.8 0-12.8-6.4-12.8-19.2 0-6.4 0-12.8 12.8-19.2 12.8 0 32-6.4 44.8-12.8 25.6-6.4 44.8-25.6 51.2-51.2 0-12.8 6.4-32 12.8-44.8 0-12.8 6.4-19.2 19.2-19.2 6.4 0 12.8 0 19.2 19.2 0 12.8 0 25.6 6.4 38.4 6.4 32 32 57.6 64 64 12.8 0 25.6 0 38.4 6.4 6.4 0 12.8 6.4 12.8 12.8z" fill="#FFFFFF" p-id="8803"></path>
</svg>