<svg t="1767685949679" class="icon" viewBox="0 0 1024 1024" version="1.1" xmlns="http://www.w3.org/2000/svg" p-id="18075" width="200" height="200"><path d="M580.492 568.39a29.013 29.013 0 0 1 25.157 14.522l1.397 2.746 169.006 379.974a29.09 29.09 0 0 1-51.805 26.298l-1.35-2.653-161.326-362.705h-99.188l-161.28 362.705a29.09 29.09 0 0 1-35.608 15.826l-2.792-1.071a29.09 29.09 0 0 1-15.826-35.607l1.07-2.793 168.96-379.95a29.09 29.09 0 0 1 23.506-17.106l3.095-0.186h136.984z" fill="#ffffff" p-id="18076"></path><path d="M654.476 748.893a29.09 29.09 0 0 1 2.979 58.019l-2.98 0.163h-284.95a29.09 29.09 0 0 1-2.98-58.042l2.98-0.14h284.95zM224.72 361.937l23.622 53.155L77.36 491.078l-23.622-53.155z m114.595 75.707l22.389 53.713-227.98 95-22.365-53.714z" fill="#fff" p-id="18077"></path><path d="M643.468 152.623l22.039 53.83L332.079 342.97l44.8 102.773 71.633-29.44 22.11 53.806-97.956 40.308a29.09 29.09 0 0 1-36.329-12.497l-1.396-2.793-68.096-156.16a29.09 29.09 0 0 1 12.916-37.236l2.747-1.303 360.96-147.805z m113.547 133.166l22.924 53.48-132.98 56.972-22.924-53.457z" fill="#fff" p-id="18078"></path><path d="M866.63 25.716l-191.488 81.106a29.09 29.09 0 0 0-15.43 38.12l92.393 218.206a29.09 29.09 0 0 0 38.12 15.453l191.465-81.06a29.09 29.09 0 0 0 15.453-38.143L904.751 41.193A29.09 29.09 0 0 0 866.63 25.74z m-4.12 64.931l69.702 164.632-137.89 58.368-69.702-164.632 137.89-58.368zM502.506 359.424a86.086 86.086 0 1 0 0 172.172 86.086 86.086 0 0 0 0-172.172z m0 58.182a27.904 27.904 0 1 1 0 55.808 27.904 27.904 0 0 1 0-55.808zM33.536 419.49a29.09 29.09 0 0 1 37.562 10.403l1.466 2.606 75.986 151.971a29.09 29.09 0 0 1-50.572 28.626l-1.466-2.607-75.985-151.97a29.09 29.09 0 0 1 13.009-39.03z" fill="#fff" p-id="18079"></path><path d="M512 473.414c15.057 0 27.462 11.45 28.951 26.112l0.14 2.979v474.95a29.09 29.09 0 0 1-58.042 2.978l-0.14-2.978v-474.95c0-16.058 13.033-29.091 29.091-29.091z" fill="#ffffff" p-id="18080"></path></svg>