<svg version="1.0" xmlns="http://www.w3.org/2000/svg" width="800.000000" height="800.000000" viewBox="0 0 800.000000 800.000000" preserveAspectRatio="xMidYMid meet">
    <metadata>
        <rdf:RDF xmlns:rdf="http://www.w3.org/1999/02/22-rdf-syntax-ns#" xmlns:rdfs="http://www.w3.org/2000/01/rdf-schema#" xmlns:dc="http://purl.org/dc/elements/1.1/">
            <rdf:Description dc:format="image/svg+xml" dc:Label="1" dc:ContentProducer="001191330110MACRLGPT8B00000" dc:ProduceID="344858179" dc:ReservedCode1="ds30Q13yTMqJRqw2UJQzm8R/NG+k52siEgaABSSfejc=" dc:ContentPropagator="001191330110MACRLGPT8B00000" dc:PropagateID="344858179" dc:ReservedCode2="ds30Q13yTMqJRqw2UJQzm8R/NG+k52siEgaABSSfejc="/>
        </rdf:RDF>
    </metadata>
    <g transform="translate(0.000000,800.000000) scale(0.100000,-0.100000)" fill="#ffffff" stroke="none">
        <path d="M4034 6127 c-22 -12 -416 -389 -625 -598 -124 -123 -142 -154 -120 -208 13 -29 58 -61 88 -61 31 0 77 35 215 161 73 67 193 174 267 238 350 302 364 318 342 392 -22 71 -107 111 -167 76z"/>
        <path d="M3150 6082 c-42 -21 -60 -53 -60 -108 0 -36 5 -47 35 -73 26 -22 46 -31 71 -31 117 0 161 136 69 208 -33 27 -68 28 -115 4z"/>
        <path d="M4401 5797 c-40 -20 -66 -64 -65 -108 2 -52 30 -90 79 -107 129 -43 209 137 93 208 -38 23 -72 25 -107 7z"/>
        <path d="M5275 5705 c-22 -7 -96 -36 -165 -65 -69 -28 -165 -67 -215 -86 -49 -20 -103 -42 -120 -49 -16 -8 -95 -41 -175 -74 -80 -33 -210 -87 -289 -120 -79 -34 -148 -61 -153 -61 -4 0 -8 9 -8 19 0 25 -44 78 -83 97 -46 24 -101 13 -187 -38 -119 -71 -485 -295 -595 -363 -55 -34 -143 -88 -195 -120 -52 -32 -133 -83 -180 -113 -47 -30 -116 -75 -155 -100 -231 -149 -473 -360 -565 -492 -13 -19 -27 -37 -30 -40 -4 -3 -12 -14 -18 -25 -10 -17 -11 -17 -12 -3 0 9 4 19 8 22 5 3 21 38 37 78 65 167 149 296 347 537 79 96 173 213 210 260 36 47 126 147 199 221 145 148 166 182 149 236 -22 65 -87 92 -148 60 -36 -19 -684 -673 -754 -761 -368 -464 -476 -1027 -302 -1580 38 -121 164 -368 238 -465 270 -357 655 -579 1097 -630 150 -18 425 -8 549 19 382 85 668 253 982 580 154 160 511 567 521 594 5 12 6 42 4 67 -9 82 -91 125 -166 86 -15 -8 -115 -106 -221 -218 -426 -448 -583 -587 -780 -690 -112 -59 -339 -142 -368 -135 -15 3 -15 5 3 12 77 33 270 188 356 286 30 34 61 69 70 78 25 28 142 181 190 251 54 77 269 409 269 415 0 2 17 30 39 62 21 32 106 168 188 303 83 135 216 351 296 480 286 461 298 484 282 547 -16 66 -119 130 -187 116 l-29 -6 14 34 c8 19 24 59 37 89 12 30 31 73 40 95 44 98 63 144 84 200 13 33 33 81 45 107 11 26 28 72 36 103 12 48 12 62 1 89 -18 42 -52 75 -92 92 -39 16 -46 16 -99 -1z m-205 -401 c0 -5 -26 -69 -152 -366 -76 -181 -81 -201 -62 -248 21 -51 56 -74 126 -80 l58 -5 -71 -115 c-40 -63 -86 -137 -104 -165 -17 -27 -103 -165 -189 -305 -536 -869 -634 -1010 -836 -1210 -230 -228 -454 -330 -719 -330 -349 0 -675 216 -836 553 -141 295 -82 667 151 957 113 140 252 257 509 426 167 110 172 113 440 278 105 65 202 126 217 137 15 10 30 19 32 19 3 0 61 34 128 75 67 41 125 75 129 75 4 0 9 -14 13 -30 7 -39 49 -78 92 -86 26 -5 55 3 136 39 139 62 326 142 423 182 557 229 515 212 515 199z"/>
        <path d="M3582 4560 c-27 -12 -92 -68 -170 -145 l-127 -125 -185 0 c-102 0 -201 -5 -221 -10 -45 -13 -108 -67 -148 -127 -31 -46 -31 -47 -31 -180 l0 -133 -78 -83 c-127 -134 -122 -123 -122 -251 0 -76 6 -137 20 -194 14 -60 20 -118 20 -209 0 -150 7 -170 92 -248 83 -77 107 -85 252 -85 120 0 123 1 172 31 27 17 64 44 82 60 l33 29 147 0 c146 0 149 0 193 29 56 36 195 179 209 215 5 15 10 70 10 123 l0 96 103 106 c111 114 117 125 117 229 l0 55 103 103 c56 57 110 118 120 136 23 44 25 299 2 355 -20 47 -181 208 -228 228 -27 11 -74 15 -179 15 -121 0 -150 -4 -186 -20z m298 -106 c22 -5 54 -30 106 -83 l74 -76 0 -132 0 -133 -106 -111 c-58 -61 -112 -126 -120 -145 -8 -18 -14 -59 -14 -91 l0 -58 -91 -90 c-120 -119 -129 -138 -129 -265 l0 -100 -72 -71 c-40 -39 -83 -75 -96 -80 -13 -5 -82 -9 -153 -9 -142 0 -160 -5 -234 -65 -61 -49 -78 -55 -153 -55 -102 0 -128 8 -180 55 l-47 43 -6 158 c-4 98 -13 180 -23 214 -9 31 -16 92 -16 139 l0 84 83 86 c123 126 117 113 117 274 l0 138 41 37 c22 20 50 40 62 44 12 3 104 6 205 7 148 1 189 4 215 17 18 9 87 70 154 136 86 86 131 122 155 128 41 10 185 12 228 4z"/>
        <path d="M2272 5487 c-34 -19 -55 -55 -56 -97 -2 -96 90 -150 172 -100 100 61 61 211 -55 210 -21 -1 -48 -6 -61 -13z"/>
        <path d="M5553 5031 c-39 -25 -53 -49 -53 -95 0 -47 16 -79 50 -99 94 -56 208 37 166 136 -29 69 -103 96 -163 58z"/>
        <path d="M5608 4460 c-46 -35 -303 -327 -541 -613 -107 -129 -119 -153 -101 -202 10 -26 62 -48 100 -40 36 6 48 18 332 340 82 94 195 221 251 283 96 107 106 125 101 177 -3 30 -42 65 -81 71 -25 4 -41 1 -61 -16z"/>
        <path d="M5694 3820 c-37 -15 -64 -59 -64 -106 0 -138 199 -155 224 -19 17 90 -74 160 -160 125z"/>
        <path d="M5152 2754 c-57 -40 -69 -128 -23 -174 36 -37 72 -46 122 -31 51 15 74 51 74 114 0 42 -4 52 -33 78 -37 34 -102 40 -140 13z"/>
    </g>
</svg>