<svg t="1766822371652" class="icon" viewBox="0 0 1024 1024" version="1.1" xmlns="http://www.w3.org/2000/svg" p-id="1680" data-darkreader-inline-fill="" width="200" height="200"><path d="M511.9616 0c235.7504 0 426.88 182.6816 426.88 407.9616C938.8416 754.5856 511.9616 1024 511.9616 1024S85.1328 787.0464 85.1328 407.9616C85.1328 182.6816 276.2368 0 511.9616 0z m22.1696 918.4256a1247.8464 1247.8464 0 0 0 138.5728-123.2384c121.5232-126.0544 192.9728-258.1504 192.9728-387.2512 0-184.1408-157.696-334.7968-353.7152-334.7968S158.3232 223.7952 158.3232 407.9616c0 143.488 71.0656 277.6832 192 398.464a1045.7088 1045.7088 0 0 0 137.1136 114.816q11.136 7.8336 22.4768 15.36 12.2624-8.9344 24.2944-18.176z m-27.776-321.0496a188.9792 188.9792 0 1 1 189.2096-188.9792 189.0816 189.0816 0 0 1-189.2096 188.9792z m0-73.1392a115.8144 115.8144 0 1 0-116.0448-115.8144 115.9168 115.9168 0 0 0 116.0704 115.8144z" p-id="1681"></path></svg>